# AST/ASF file generated using VICON BodyLanguage
# -----------------------------------------------
:version 1.10
:name VICON
:units
  mass 1.0
  length 0.45
  angle deg
:documentation
   .ast/.asf automatically generated from VICON data using
   VICON BodyBuilder and BodyLanguage model FoxedUp or BRILLIANT.MOD
:root
   order TX TY TZ RX RY RZ
   axis XYZ
   position 0 0 0  
   orientation 0 0 0 
:bonedata
  begin
     id 1 
     name lhipjoint
     direction 0.671379 -0.66392 0.329334 
     length 2.38647 
     axis 0 0 0  XYZ
  end
  begin
     id 2 
     name lfemur
     direction 0.34202 -0.939693 0  
     length 6.48179  
     axis 0 0 20  XYZ
    dof rx ry rz
    limits (-160.0 20.0)
           (-70.0 70.0)
           (-60.0 70.0)
  end
  begin
     id 3 
     name ltibia
     direction 0.34202 -0.939693 0   
     length 6.86524   
     axis 0 0 20   XYZ
    dof rx
    limits (-10.0 170.0)
  end
  begin
     id 4 
     name lfoot
     direction 0.204886 -0.562919 0.800715   
     length 1.73031   
     axis -90 7.62852e-016 20   XYZ
    dof rx rz
    limits (-45.0 90.0)
           (-70.0 20.0)
  end
  begin
     id 5 
     name ltoes
     direction 1.53548e-011 -4.21841e-011 1   
     length 0.828161   
     axis -90 7.62852e-016 20   XYZ
    dof rx
    limits (-90.0 20.0)
  end
  begin
     id 6 
     name rhipjoint
     direction -0.662732 -0.670855 0.332775   
     length 2.3618  
     axis 0 0 0  XYZ 
  end
  begin
     id 7 
     name rfemur
     direction -0.34202 -0.939693 0   
     length 6.3025   
     axis 0 0 -20   XYZ
    dof rx ry rz
    limits (-160.0 20.0)
           (-70.0 70.0)
           (-70.0 60.0)
  end
  begin
     id 8 
     name rtibia
     direction -0.34202 -0.939693 0   
     length 6.8732   
     axis 0 0 -20   XYZ
    dof rx
    limits (-10.0 170.0)
 end
 begin
     id 9 
     name rfoot
     direction -0.173856 -0.477665 0.861168   
     length 1.54784  
     axis -90 -7.62852e-016 -20   XYZ
    dof rx rz
    limits (-45.0 90.0)
           (-20.0 70.0)
  end
  begin
     id 10 
     name rtoes
     direction -1.53562e-011 -4.21802e-011 1   
     length 0.759618   
     axis -90 -7.62852e-016 -20   XYZ
    dof rx
    limits (-90.0 20.0)
  end
  begin
     id 11 
     name lowerback
     direction -0.0278357 0.999497 -0.0151789   
     length 1.97203   
     axis 0 0 0   XYZ
    dof rx ry rz
    limits (-20.0 45.0)
           (-30.0 30.0)
           (-30.0 30.0)
  end
  begin
     id 12 
     name upperback
     direction -0.00360622 0.997542 0.0699804   
     length 1.94709   
     axis 0 0 0   XYZ
    dof rx ry rz
    limits (-20.0 45.0)
           (-30.0 30.0)
           (-30.0 30.0)
  end
  begin
     id 13 
     name thorax
     direction 0.00907706 0.997048 0.0762461   
     length 1.95722   
     axis 0 0 0   XYZ
    dof rx ry rz
    limits (-20.0 45.0)
           (-30.0 30.0)
           (-30.0 30.0)
  end
  begin
     id 14 
     name lowerneck
     direction -0.0481835 0.99872 -0.0153927   
     length 1.63078   
     axis 0 0 0   XYZ
    dof rx ry rz
    limits (-20.0 45.0)
           (-30.0 30.0)
           (-30.0 30.0)
  end
  begin
     id 15 
     name upperneck
     direction 0.0859716 0.979226 -0.183644   
     length 1.62591   
     axis 0 0 0   XYZ
    dof rx ry rz
    limits (-20.0 45.0)
           (-30.0 30.0)
           (-30.0 30.0)
  end
  begin
     id 16
     name head
     direction 0.0324821 0.997629 -0.0606773  
     length 1.64811  
     axis 0 0 0   XYZ
    dof rx ry rz
    limits (-20.0 45.0)
           (-30.0 30.0)
           (-30.0 30.0)
  end
  begin
     id 17 
     name lclavicle
     direction 0.939609 0.311019 0.142835  
     length 3.70647  
     axis 0 0 0   XYZ
    dof ry rz
    limits (-20.0 10.0)
           (0.0 20.0)
  end
  begin
     id 18 
     name lhumerus
     direction 1 -4.48963e-011 -1.59838e-027   
     length 4.59207   
     axis 180 -30 -90   XYZ
    dof rx ry rz
    limits (-60.0 90.0)
           (-90.0 90.0)
           (-90.0 90.0)
  end
  begin
     id 19
     name lradius
     direction 1 -4.48957e-011 -1.3483e-026   
     length 2.98109   
     axis 180 -30 -90   XYZ
    dof rx
    limits (-10.0 170.0)
  end
  begin
     id 20
     name lwrist
     direction 1 -4.48954e-011 -3.11579e-026   
     length 1.49055   
     axis 2.00652e-014 90 90   XYZ
    dof ry
    limits (-180.0 0.0)
 end
  begin
     id 21 
     name lhand
     direction 1 -4.4911e-011 -6.23158e-026   
     length 0.480203   
     axis 3.97628e-014 90 90   XYZ
    dof rx rz
    limits (-90.0 90.0)
           (-45.0 45.0)
  end
  begin
     id 22 
     name lfingers
     direction 1 -4.48893e-011 -1.24632e-025   
     length 0.387152   
     axis 7.95256e-014 90 90   XYZ
    dof rx
    limits (0.0 90.0)
  end
  begin
     id 23
     name lthumb
     direction 0.707107 -6.35013e-011 0.707107   
     length 0.555875   
     axis -90 45 2.85299e-015   XYZ
    dof rx rz
    limits (-45.0 45.0)
           (-45.0 45.0)
  end
  begin
     id 24 
     name rclavicle
     direction -0.950396 0.30392 0.0661859   
     length 3.70894  
     axis 0 0 0   XYZ 
    dof ry rz
    limits (-10.0 20.0)
           (-20.0 0.0)
  end
  begin
     id 25 
     name rhumerus
     direction -1 -4.48957e-011 -2.96677e-027  
     length 4.76508   
     axis 180 30 90   XYZ
    dof rx ry rz
    limits (-90.0 60.0)
           (-90.0 90.0)
           (-90.0 90.0)
  end
  begin
     id 26 
     name rradius
     direction -1 -4.48974e-011 -1.44501e-026   
     length 2.78902   
     axis 180 30 90   XYZ
    dof rx
    limits (-10.0 170.0)
  end
  begin
     id 27 
     name rwrist
     direction -1 -4.48978e-011 -3.11579e-026   
     length 1.39451   
     axis 2.00652e-014 -90 -90   XYZ
    dof ry
    limits (-180.0 0.0)
  end
  begin
     id 28
     name rhand
     direction -1 -4.48956e-011 -6.23158e-026   
     length 0.721303   
     axis 3.97628e-014 -90 -90   XYZ
    dof rx rz
    limits (-90.0 90.0)
           (-45.0 45.0)
  end
  begin
     id 29
     name rfingers
     direction -1 -4.4899e-011 -1.24632e-025   
     length 0.581533   
     axis 7.95256e-014 -90 -90   XYZ
    dof rx
    limits (0.0 90.0)
  end
  begin
     id 30
     name rthumb
     direction -0.707107 -6.34911e-011 0.707107   
     length 0.834968   
     axis -90 -45 -2.85299e-015   XYZ
    dof rx rz
    limits (-45.0 45.0)
           (-45.0 45.0)
  end
:hierarchy
  begin
    root lhipjoint rhipjoint lowerback
    lhipjoint lfemur
    lfemur ltibia
    ltibia lfoot
    lfoot ltoes
    rhipjoint rfemur
    rfemur rtibia
    rtibia rfoot
    rfoot rtoes
    lowerback upperback
    upperback thorax
    thorax lowerneck lclavicle rclavicle
    lowerneck upperneck
    upperneck head
    lclavicle lhumerus
    lhumerus lradius
    lradius lwrist
    lwrist lhand lthumb
    lhand lfingers
    rclavicle rhumerus
    rhumerus rradius
    rradius rwrist
    rwrist rhand rthumb
    rhand rfingers
  end

#!OML:ASF I:\salsa\salsa 7_09\Patient 1\Session 1\dancerfemale.ASF
:FULLY-SPECIFIED
:DEGREES
75
root 24.7972 15.8457 0.461222 -68.5708 -88.3054 73.3335
lowerback -2.87732 1.69351 -6.9155
upperback -5.78305 2.1559 1.00435
thorax -4.72227 1.35196 4.89569
lowerneck -2.69307 -5.07051 -11.1893
upperneck 10.973 -7.44815 10.5366
head 4.51655 -3.69751 4.70858
rclavicle 3.13334e-014 -1.10325e-014
rhumerus -44.2734 -34.9715 -67.3756
rradius 23.6786
rwrist 12.9305
rhand 2.48938 52.0368
rfingers 7.12502
rthumb 27.9725 24.101
lclavicle 3.13334e-014 -1.10325e-014
lhumerus -46.6629 24.3329 76.826
lradius 39.0432
lwrist -15.8841
lhand -22.0431 58.1433
lfingers 7.12502
lthumb 4.36715 88.0783
rfemur -15.5441 0.566229 16.8138
rtibia 31.4857
rfoot -25.7993 -12.5478
rtoes -10.2599
lfemur -16.247 0.577683 -27.2655
ltibia 35.2713
lfoot -27.3133 -0.302789
ltoes -21.626
76
root 24.7968 15.8448 0.467513 -68.8542 -88.2914 73.6173
lowerback -2.87207 1.6985 -6.9324
upperback -5.77324 2.16346 1.01814
thorax -4.71746 1.35665 4.91954
lowerneck -2.73823 -5.08938 -11.288
upperneck 11.0391 -7.47526 10.5911
head 4.55297 -3.71113 4.73912
rclavicle 2.58172e-014 1.10325e-014
rhumerus -44.3112 -35.0993 -67.2564
rradius 23.6548
rwrist 13.0164
rhand 2.43324 52.1895
rfingers 7.12502
rthumb 27.9189 24.2449
lclavicle 2.58172e-014 1.10325e-014
lhumerus -46.6787 24.4243 76.8972
lradius 39.0148
lwrist -15.9392
lhand -21.8787 57.9208
lfingers 7.12502
lthumb 4.52589 87.8524
rfemur -15.5628 0.587586 16.7718
rtibia 31.5185
rfoot -25.822 -12.5801
rtoes -10.107
lfemur -16.2534 0.587137 -27.3041
ltibia 35.2745
lfoot -27.2467 -0.34569
ltoes -21.5292
77
root 24.7961 15.8434 0.475112 -69.4444 -88.2627 74.2137
lowerback -2.85069 1.70492 -6.93111
upperback -5.78527 2.16954 1.01155
thorax -4.74289 1.3605 4.9109
lowerneck -2.71911 -5.11237 -11.3578
upperneck 11.0648 -7.50884 10.6089
head 4.56467 -3.73039 4.75441
rclavicle 8.89561e-015 5.46658e-015
rhumerus -44.3981 -35.2076 -67.1541
rradius 23.6633
rwrist 13.0798
rhand 2.17909 52.4518
rfingers 7.12502
rthumb 27.6759 24.468
lclavicle 8.89561e-015 5.46658e-015
lhumerus -46.7751 24.6453 76.7798
lradius 38.9141
lwrist -16.3159
lhand -21.4554 56.6878
lfingers 7.12502
lthumb 4.93468 86.6104
rfemur -15.6038 0.557834 16.7053
rtibia 31.568
rfoot -25.8496 -12.5822
rtoes -10.2217
lfemur -16.2516 0.622096 -27.374
ltibia 35.2755
lfoot -27.2405 -0.357476
ltoes -21.4821
78
root 24.7951 15.8427 0.483186 -69.8631 -88.2711 74.6341
lowerback -2.84109 1.72897 -6.90048
upperback -5.79732 2.2003 1.01268
thorax -4.76382 1.3754 4.89359
lowerneck -2.65085 -5.12044 -11.4164
upperneck 11.0636 -7.5233 10.608
head 4.55663 -3.74213 4.76448
rclavicle -5.10131e-014 3.67752e-015
rhumerus -44.4785 -35.1576 -67.1678
rradius 23.7573
rwrist 12.9723
rhand 1.97308 52.4583
rfingers 7.12502
rthumb 27.4788 24.443
lclavicle -5.10131e-014 3.67752e-015
lhumerus -46.9051 25.0509 76.5043
lradius 38.737
lwrist -17.2369
lhand -20.481 54.8446
lfingers 7.12502
lthumb 5.87539 84.7431
rfemur -15.6426 0.551861 16.6828
rtibia 31.618
rfoot -25.8209 -12.6171
rtoes -10.6049
lfemur -16.2426 0.600602 -27.3988
ltibia 35.279
lfoot -27.3364 -0.357297
ltoes -21.1078
79
root 24.7933 15.8425 0.491279 -68.782 -88.3086 73.5695
lowerback -2.9248 1.76057 -6.83777
upperback -5.76954 2.2503 1.02118
thorax -4.69055 1.39479 4.8691
lowerneck -2.56673 -5.13028 -11.4604
upperneck 11.0017 -7.53907 10.624
head 4.5277 -3.75319 4.77785
rclavicle 2.60905e-014 8.94531e-015
rhumerus -44.4749 -35.1138 -67.2282
rradius 23.7875
rwrist 12.8298
rhand 2.22362 52.1798
rfingers 7.12502
rthumb 27.7184 24.2028
lclavicle 2.60905e-014 8.94531e-015
lhumerus -46.6833 24.6481 77.206
lradius 38.923
lwrist -16.167
lhand -21.5291 56.6867
lfingers 7.12502
lthumb 4.86351 86.6109
rfemur -15.6848 0.573268 16.7117
rtibia 31.6641
rfoot -25.7922 -12.716
rtoes -10.6969
lfemur -16.2651 0.56816 -27.3696
ltibia 35.2847
lfoot -27.3961 -0.417102
ltoes -20.5797
80
root 24.7904 15.8417 0.499074 -66.064 -88.2865 70.8572
lowerback -3.00836 1.76328 -6.79051
upperback -5.72787 2.26131 0.994966
thorax -4.59634 1.39359 4.81803
lowerneck -2.4872 -5.14332 -11.3777
upperneck 10.9169 -7.55907 10.5896
head 4.4865 -3.7634 4.75402
rclavicle -4.52235e-015 1.64991e-014
rhumerus -44.4879 -35.1704 -67.2743
rradius 23.7432
rwrist 12.8244
rhand 2.40965 52.1177
rfingers 7.12502
rthumb 27.8963 24.1695
lclavicle -4.52235e-015 1.64991e-014
lhumerus -46.5289 24.4716 77.6032
lradius 39.0517
lwrist -15.7912
lhand -21.7427 57.5289
lfingers 7.12502
lthumb 4.65725 87.4577
rfemur -15.6844 0.578408 16.6961
rtibia 31.7052
rfoot -25.8529 -12.8474
rtoes -10.8319
lfemur -16.2756 0.632721 -27.3846
ltibia 35.2842
lfoot -27.3908 -0.579555
ltoes -20.2719
